<?xml version="1.0" encoding="UTF-8"?>
<!DOCTYPE svg PUBLIC "-//W3C//DTD SVG 1.1//EN" "http://www.w3.org/Graphics/SVG/1.1/DTD/svg11.dtd">
<svg xmlns="http://www.w3.org/2000/svg" version="1.1" width="390px" height="238px" style="shape-rendering:geometricPrecision; text-rendering:geometricPrecision; image-rendering:optimizeQuality; fill-rule:evenodd; clip-rule:evenodd" xmlns:xlink="http://www.w3.org/1999/xlink">
<g><path style="opacity:1" fill="#77accb" d="M -0.5,-0.5 C 129.5,-0.5 259.5,-0.5 389.5,-0.5C 389.5,78.8333 389.5,158.167 389.5,237.5C 259.5,237.5 129.5,237.5 -0.5,237.5C -0.5,158.167 -0.5,78.8333 -0.5,-0.5 Z"/></g>
<g><path style="opacity:1" fill="#fcfcfd" d="M 67.5,50.5 C 62.1667,50.5 56.8333,50.5 51.5,50.5C 51.5,48.8333 51.5,47.1667 51.5,45.5C 56.5111,45.6659 61.5111,45.4993 66.5,45C 69.3988,41.8442 69.0655,39.1775 65.5,37C 63.1667,36.3333 60.8333,36.3333 58.5,37C 57.6198,38.3561 57.2865,39.8561 57.5,41.5C 55.5,41.5 53.5,41.5 51.5,41.5C 51.5,38.1667 51.5,34.8333 51.5,31.5C 57.1764,31.3339 62.8431,31.5006 68.5,32C 75.029,34.9074 76.8624,39.7408 74,46.5C 72.3621,48.7337 70.1955,50.067 67.5,50.5 Z"/></g>
<g><path style="opacity:1" fill="#fdfdfd" d="M 96.5,31.5 C 102.176,31.3339 107.843,31.5006 113.5,32C 119.095,34.354 120.928,38.5207 119,44.5C 117.378,46.906 115.211,48.7394 112.5,50C 115.538,52.7026 118.205,55.7026 120.5,59C 117.773,59.8184 115.106,59.6517 112.5,58.5C 109.708,54.6976 106.374,51.6976 102.5,49.5C 102.5,52.8333 102.5,56.1667 102.5,59.5C 100.5,59.5 98.5,59.5 96.5,59.5C 96.5,50.1667 96.5,40.8333 96.5,31.5 Z"/></g>
<g><path style="opacity:1" fill="#fbfcfc" d="M 141.5,31.5 C 148.5,31.5 155.5,31.5 162.5,31.5C 162.5,33.5 162.5,35.5 162.5,37.5C 157.5,37.5 152.5,37.5 147.5,37.5C 147.5,39.1667 147.5,40.8333 147.5,42.5C 152.167,42.5 156.833,42.5 161.5,42.5C 161.5,44.1667 161.5,45.8333 161.5,47.5C 156.833,47.5 152.167,47.5 147.5,47.5C 147.5,49.5 147.5,51.5 147.5,53.5C 152.5,53.5 157.5,53.5 162.5,53.5C 162.5,55.5 162.5,57.5 162.5,59.5C 155.5,59.5 148.5,59.5 141.5,59.5C 141.5,50.1667 141.5,40.8333 141.5,31.5 Z"/></g>
<g><path style="opacity:1" fill="#fdfdfd" d="M 184.5,31.5 C 191.5,31.5 198.5,31.5 205.5,31.5C 205.5,33.5 205.5,35.5 205.5,37.5C 200.5,37.5 195.5,37.5 190.5,37.5C 190.5,39.5 190.5,41.5 190.5,43.5C 194.833,43.5 199.167,43.5 203.5,43.5C 203.5,45.5 203.5,47.5 203.5,49.5C 199.167,49.5 194.833,49.5 190.5,49.5C 190.5,52.8333 190.5,56.1667 190.5,59.5C 188.5,59.5 186.5,59.5 184.5,59.5C 184.5,50.1667 184.5,40.8333 184.5,31.5 Z"/></g>
<g><path style="opacity:1" fill="#fbfbfc" d="M 232.5,31.5 C 234.924,31.1924 237.257,31.5258 239.5,32.5C 243.167,41.1667 246.833,49.8333 250.5,58.5C 248.257,59.4742 245.924,59.8076 243.5,59.5C 243.579,58.0695 243.246,56.7362 242.5,55.5C 238.167,54.1667 233.833,54.1667 229.5,55.5C 228.112,59.094 225.445,60.4273 221.5,59.5C 224.773,50.0155 228.439,40.6822 232.5,31.5 Z"/></g>
<g><path style="opacity:1" fill="#fafbfb" d="M 281.5,30.5 C 286.794,30.7309 291.294,32.7309 295,36.5C 296.009,38.0249 296.509,39.6916 296.5,41.5C 294.94,41.5191 293.44,41.8524 292,42.5C 284.426,33.7822 278.593,34.7822 274.5,45.5C 276.247,52.7025 280.58,55.2025 287.5,53C 288.743,51.8455 289.743,50.5122 290.5,49C 296.12,47.6145 297.62,49.4478 295,54.5C 289.28,59.661 282.78,60.8276 275.5,58C 267.454,51.3035 266.454,43.6368 272.5,35C 275.324,32.9212 278.324,31.4212 281.5,30.5 Z"/></g>
<g><path style="opacity:1" fill="#7595a6" d="M 339.5,31.5 C 332.5,31.5 325.5,31.5 318.5,31.5C 318.5,40.8333 318.5,50.1667 318.5,59.5C 317.506,50.0144 317.173,40.3478 317.5,30.5C 325.019,30.175 332.352,30.5084 339.5,31.5 Z"/></g>
<g><path style="opacity:1" fill="#fbfcfc" d="M 339.5,31.5 C 339.5,33.5 339.5,35.5 339.5,37.5C 334.5,37.5 329.5,37.5 324.5,37.5C 324.5,39.1667 324.5,40.8333 324.5,42.5C 329.167,42.5 333.833,42.5 338.5,42.5C 338.5,44.1667 338.5,45.8333 338.5,47.5C 333.833,47.5 329.167,47.5 324.5,47.5C 324.5,49.5 324.5,51.5 324.5,53.5C 329.5,53.5 334.5,53.5 339.5,53.5C 339.5,55.5 339.5,57.5 339.5,59.5C 332.5,59.5 325.5,59.5 318.5,59.5C 318.5,50.1667 318.5,40.8333 318.5,31.5C 325.5,31.5 332.5,31.5 339.5,31.5 Z"/></g>
<g><path style="opacity:1" fill="#7ca9c2" d="M 102.5,36.5 C 105.187,36.3359 107.854,36.5026 110.5,37C 114.037,38.8265 114.371,41.1598 111.5,44C 108.518,44.498 105.518,44.6646 102.5,44.5C 102.5,41.8333 102.5,39.1667 102.5,36.5 Z"/></g>
<g><path style="opacity:1" fill="#79a8c4" d="M 235.5,39.5 C 237.33,41.8263 238.663,44.493 239.5,47.5C 237.257,48.4742 234.924,48.8076 232.5,48.5C 233.216,45.4018 234.216,42.4018 235.5,39.5 Z"/></g>
<g><path style="opacity:1" fill="#7193a7" d="M 51.5,45.5 C 51.5,47.1667 51.5,48.8333 51.5,50.5C 56.8333,50.5 62.1667,50.5 67.5,50.5C 62.0247,51.4889 56.358,51.8222 50.5,51.5C 50.2053,49.2646 50.5386,47.2646 51.5,45.5 Z"/></g>
<g><path style="opacity:1" fill="#fefefe" d="M 51.5,54.5 C 53.5,54.5 55.5,54.5 57.5,54.5C 57.5,56.1667 57.5,57.8333 57.5,59.5C 55.5,59.5 53.5,59.5 51.5,59.5C 51.5,57.8333 51.5,56.1667 51.5,54.5 Z"/></g>
<g><path style="opacity:1" fill="#eaf2f7" d="M 71.5,98.5 C 69.1667,98.5 66.8333,98.5 64.5,98.5C 64.5,114.167 64.5,129.833 64.5,145.5C 63.5036,129.675 63.1703,113.675 63.5,97.5C 66.3854,97.1936 69.0521,97.5269 71.5,98.5 Z"/></g>
<g><path style="opacity:1" fill="#fdfdfd" d="M 71.5,98.5 C 71.5,100.833 71.5,103.167 71.5,105.5C 74.1667,105.5 76.8333,105.5 79.5,105.5C 79.5,108.167 79.5,110.833 79.5,113.5C 76.8333,113.5 74.1667,113.5 71.5,113.5C 71.5,124.167 71.5,134.833 71.5,145.5C 69.1667,145.5 66.8333,145.5 64.5,145.5C 64.5,129.833 64.5,114.167 64.5,98.5C 66.8333,98.5 69.1667,98.5 71.5,98.5 Z"/></g>
<g><path style="opacity:1" fill="#fdfdfe" d="M 103.5,97.5 C 103.5,113.5 103.5,129.5 103.5,145.5C 100.833,145.5 98.1667,145.5 95.5,145.5C 95.5,140.167 95.5,134.833 95.5,129.5C 92.8333,129.5 90.1667,129.5 87.5,129.5C 87.5,127.167 87.5,124.833 87.5,122.5C 90.1667,122.5 92.8333,122.5 95.5,122.5C 95.5,114.167 95.5,105.833 95.5,97.5C 98.1667,97.5 100.833,97.5 103.5,97.5 Z"/></g>
<g><path style="opacity:1" fill="#7ea3b7" d="M 103.5,97.5 C 104.496,113.658 104.83,129.991 104.5,146.5C 101.287,146.81 98.2869,146.477 95.5,145.5C 98.1667,145.5 100.833,145.5 103.5,145.5C 103.5,129.5 103.5,113.5 103.5,97.5 Z"/></g>
<g><path style="opacity:1" fill="#fbfcfd" d="M 151.5,105.5 C 143.5,105.5 135.5,105.5 127.5,105.5C 127.5,102.833 127.5,100.167 127.5,97.5C 135.5,97.5 143.5,97.5 151.5,97.5C 151.5,100.167 151.5,102.833 151.5,105.5 Z"/></g>
<g><path style="opacity:1" fill="#86abc0" d="M 175.5,97.5 C 175.5,113.5 175.5,129.5 175.5,145.5C 178.167,145.5 180.833,145.5 183.5,145.5C 180.713,146.477 177.713,146.81 174.5,146.5C 174.17,129.991 174.504,113.658 175.5,97.5 Z"/></g>
<g><path style="opacity:1" fill="#fcfdfd" d="M 175.5,97.5 C 178.167,97.5 180.833,97.5 183.5,97.5C 183.5,103.167 183.5,108.833 183.5,114.5C 186.167,114.5 188.833,114.5 191.5,114.5C 191.5,116.833 191.5,119.167 191.5,121.5C 188.833,121.5 186.167,121.5 183.5,121.5C 183.5,129.5 183.5,137.5 183.5,145.5C 180.833,145.5 178.167,145.5 175.5,145.5C 175.5,129.5 175.5,113.5 175.5,97.5 Z"/></g>
<g><path style="opacity:1" fill="#fefefe" d="M 207.5,98.5 C 209.833,98.5 212.167,98.5 214.5,98.5C 214.5,114.167 214.5,129.833 214.5,145.5C 212.167,145.5 209.833,145.5 207.5,145.5C 207.5,137.5 207.5,129.5 207.5,121.5C 204.833,121.5 202.167,121.5 199.5,121.5C 199.5,119.167 199.5,116.833 199.5,114.5C 202.167,114.5 204.833,114.5 207.5,114.5C 207.5,109.167 207.5,103.833 207.5,98.5 Z"/></g>
<g><path style="opacity:1" fill="#dfebf1" d="M 207.5,98.5 C 209.948,97.5269 212.615,97.1936 215.5,97.5C 215.83,113.675 215.496,129.675 214.5,145.5C 214.5,129.833 214.5,114.167 214.5,98.5C 212.167,98.5 209.833,98.5 207.5,98.5 Z"/></g>
<g><path style="opacity:1" fill="#fbfcfd" d="M 262.5,105.5 C 254.833,105.5 247.167,105.5 239.5,105.5C 239.5,102.833 239.5,100.167 239.5,97.5C 247.167,97.5 254.833,97.5 262.5,97.5C 262.5,100.167 262.5,102.833 262.5,105.5 Z"/></g>
<g><path style="opacity:1" fill="#d2e4ee" d="M 318.5,98.5 C 308.167,98.5 297.833,98.5 287.5,98.5C 287.5,114.167 287.5,129.833 287.5,145.5C 286.504,129.675 286.17,113.675 286.5,97.5C 297.346,97.1722 308.013,97.5056 318.5,98.5 Z"/></g>
<g><path style="opacity:1" fill="#fcfdfe" d="M 318.5,98.5 C 318.5,100.833 318.5,103.167 318.5,105.5C 310.833,105.5 303.167,105.5 295.5,105.5C 295.5,116.167 295.5,126.833 295.5,137.5C 302.982,138.492 310.648,138.825 318.5,138.5C 318.5,140.833 318.5,143.167 318.5,145.5C 308.167,145.5 297.833,145.5 287.5,145.5C 287.5,129.833 287.5,114.167 287.5,98.5C 297.833,98.5 308.167,98.5 318.5,98.5 Z"/></g>
<g><path style="opacity:1" fill="#799db2" d="M 119.5,105.5 C 119.5,116.167 119.5,126.833 119.5,137.5C 122.167,137.5 124.833,137.5 127.5,137.5C 127.5,140.167 127.5,142.833 127.5,145.5C 135.5,145.5 143.5,145.5 151.5,145.5C 143.35,146.493 135.017,146.826 126.5,146.5C 126.5,143.833 126.5,141.167 126.5,138.5C 123.833,138.5 121.167,138.5 118.5,138.5C 118.172,127.321 118.505,116.321 119.5,105.5 Z"/></g>
<g><path style="opacity:1" fill="#fcfdfd" d="M 119.5,105.5 C 122.167,105.5 124.833,105.5 127.5,105.5C 127.5,116.167 127.5,126.833 127.5,137.5C 124.833,137.5 122.167,137.5 119.5,137.5C 119.5,126.833 119.5,116.167 119.5,105.5 Z"/></g>
<g><path style="opacity:1" fill="#769db1" d="M 127.5,105.5 C 135.5,105.5 143.5,105.5 151.5,105.5C 151.5,116.167 151.5,126.833 151.5,137.5C 151.167,137.5 150.833,137.5 150.5,137.5C 150.5,127.167 150.5,116.833 150.5,106.5C 143.167,106.5 135.833,106.5 128.5,106.5C 128.5,116.833 128.5,127.167 128.5,137.5C 128.167,137.5 127.833,137.5 127.5,137.5C 127.5,126.833 127.5,116.167 127.5,105.5 Z"/></g>
<g><path style="opacity:1" fill="#77adcb" d="M 150.5,137.5 C 143.167,137.5 135.833,137.5 128.5,137.5C 128.5,127.167 128.5,116.833 128.5,106.5C 135.833,106.5 143.167,106.5 150.5,106.5C 150.5,116.833 150.5,127.167 150.5,137.5 Z"/></g>
<g><path style="opacity:1" fill="#fbfcfd" d="M 151.5,105.5 C 154.167,105.5 156.833,105.5 159.5,105.5C 159.5,116.167 159.5,126.833 159.5,137.5C 156.833,137.5 154.167,137.5 151.5,137.5C 151.5,126.833 151.5,116.167 151.5,105.5 Z"/></g>
<g><path style="opacity:1" fill="#87a4b3" d="M 231.5,105.5 C 231.5,105.833 231.5,106.167 231.5,106.5C 231.5,119.5 231.5,132.5 231.5,145.5C 234.167,145.5 236.833,145.5 239.5,145.5C 236.713,146.477 233.713,146.81 230.5,146.5C 230.171,132.656 230.504,118.99 231.5,105.5 Z"/></g>
<g><path style="opacity:1" fill="#fdfdfd" d="M 231.5,106.5 C 233.833,106.5 236.167,106.5 238.5,106.5C 238.179,111.695 238.513,116.695 239.5,121.5C 247.167,122.833 254.833,122.833 262.5,121.5C 263.487,116.695 263.821,111.695 263.5,106.5C 265.833,106.5 268.167,106.5 270.5,106.5C 270.5,119.5 270.5,132.5 270.5,145.5C 268.167,145.5 265.833,145.5 263.5,145.5C 263.805,140.238 263.471,135.072 262.5,130C 254.841,129.5 247.174,129.334 239.5,129.5C 239.5,134.833 239.5,140.167 239.5,145.5C 236.833,145.5 234.167,145.5 231.5,145.5C 231.5,132.5 231.5,119.5 231.5,106.5 Z"/></g>
<g><path style="opacity:1" fill="#79acca" d="M 239.5,106.5 C 247.167,106.5 254.833,106.5 262.5,106.5C 262.5,111.5 262.5,116.5 262.5,121.5C 254.833,122.833 247.167,122.833 239.5,121.5C 239.5,116.5 239.5,111.5 239.5,106.5 Z"/></g>
<g><path style="opacity:1" fill="#a0b6c2" d="M 239.5,106.5 C 239.5,106.167 239.5,105.833 239.5,105.5C 247.167,105.5 254.833,105.5 262.5,105.5C 265.5,105.5 268.5,105.5 271.5,105.5C 271.5,119.167 271.5,132.833 271.5,146.5C 268.615,146.806 265.948,146.473 263.5,145.5C 265.833,145.5 268.167,145.5 270.5,145.5C 270.5,132.5 270.5,119.5 270.5,106.5C 268.167,106.5 265.833,106.5 263.5,106.5C 263.821,111.695 263.487,116.695 262.5,121.5C 262.5,116.5 262.5,111.5 262.5,106.5C 254.833,106.5 247.167,106.5 239.5,106.5 Z"/></g>
<g><path style="opacity:1" fill="#77acca" d="M 318.5,105.5 C 318.5,116.167 318.5,126.833 318.5,137.5C 310.833,137.5 303.167,137.5 295.5,137.5C 295.5,126.833 295.5,116.167 295.5,105.5C 303.167,105.5 310.833,105.5 318.5,105.5 Z"/></g>
<g><path style="opacity:1" fill="#dbe8ee" d="M 318.5,105.5 C 321.385,105.194 324.052,105.527 326.5,106.5C 324.167,106.5 321.833,106.5 319.5,106.5C 319.5,116.833 319.5,127.167 319.5,137.5C 319.167,137.5 318.833,137.5 318.5,137.5C 318.5,126.833 318.5,116.167 318.5,105.5 Z"/></g>
<g><path style="opacity:1" fill="#fefefe" d="M 326.5,106.5 C 326.5,116.833 326.5,127.167 326.5,137.5C 324.167,137.5 321.833,137.5 319.5,137.5C 319.5,127.167 319.5,116.833 319.5,106.5C 321.833,106.5 324.167,106.5 326.5,106.5 Z"/></g>
<g><path style="opacity:1" fill="#d5e1e6" d="M 231.5,106.5 C 231.5,106.167 231.5,105.833 231.5,105.5C 234.167,105.5 236.833,105.5 239.5,105.5C 239.5,105.833 239.5,106.167 239.5,106.5C 239.5,111.5 239.5,116.5 239.5,121.5C 238.513,116.695 238.179,111.695 238.5,106.5C 236.167,106.5 233.833,106.5 231.5,106.5 Z"/></g>
<g><path style="opacity:1" fill="#92b1c2" d="M 79.5,113.5 C 82.3854,113.194 85.0521,113.527 87.5,114.5C 84.8333,114.5 82.1667,114.5 79.5,114.5C 77.1667,114.5 74.8333,114.5 72.5,114.5C 72.8276,125.014 72.4942,135.347 71.5,145.5C 71.5,134.833 71.5,124.167 71.5,113.5C 74.1667,113.5 76.8333,113.5 79.5,113.5 Z"/></g>
<g><path style="opacity:1" fill="#fafbfc" d="M 79.5,114.5 C 82.1667,114.5 84.8333,114.5 87.5,114.5C 87.5,116.833 87.5,119.167 87.5,121.5C 84.8333,121.5 82.1667,121.5 79.5,121.5C 79.5,119.167 79.5,116.833 79.5,114.5 Z"/></g>
<g><path style="opacity:1" fill="#fcfdfd" d="M 191.5,122.5 C 194.167,122.5 196.833,122.5 199.5,122.5C 199.5,127.5 199.5,132.5 199.5,137.5C 196.833,137.5 194.167,137.5 191.5,137.5C 191.5,132.5 191.5,127.5 191.5,122.5 Z"/></g>
<g><path style="opacity:1" fill="#b9cdd9" d="M 295.5,137.5 C 303.167,137.5 310.833,137.5 318.5,137.5C 318.833,137.5 319.167,137.5 319.5,137.5C 319.806,140.385 319.473,143.052 318.5,145.5C 318.5,143.167 318.5,140.833 318.5,138.5C 310.648,138.825 302.982,138.492 295.5,137.5 Z"/></g>
<g><path style="opacity:1" fill="#f7f9fb" d="M 127.5,137.5 C 127.833,137.5 128.167,137.5 128.5,137.5C 135.833,137.5 143.167,137.5 150.5,137.5C 150.833,137.5 151.167,137.5 151.5,137.5C 151.5,140.167 151.5,142.833 151.5,145.5C 143.5,145.5 135.5,145.5 127.5,145.5C 127.5,142.833 127.5,140.167 127.5,137.5 Z"/></g>
<g><path style="opacity:1" fill="#90aab8" d="M 326.5,165.5 C 334.65,164.507 342.983,164.174 351.5,164.5C 351.81,167.713 351.477,170.713 350.5,173.5C 350.5,173.167 350.5,172.833 350.5,172.5C 350.5,170.167 350.5,167.833 350.5,165.5C 342.833,165.5 335.167,165.5 327.5,165.5C 327.167,165.5 326.833,165.5 326.5,165.5 Z"/></g>
<g><path style="opacity:1" fill="#fdfdfd" d="M 71.5,172.5 C 63.5,172.5 55.5,172.5 47.5,172.5C 47.5,170.167 47.5,167.833 47.5,165.5C 55.5,165.5 63.5,165.5 71.5,165.5C 71.5,167.833 71.5,170.167 71.5,172.5 Z"/></g>
<g><path style="opacity:1" fill="#fcfdfd" d="M 87.5,165.5 C 92.8333,165.5 98.1667,165.5 103.5,165.5C 103.5,175.833 103.5,186.167 103.5,196.5C 100.833,196.5 98.1667,196.5 95.5,196.5C 95.5,188.833 95.5,181.167 95.5,173.5C 92.8333,173.5 90.1667,173.5 87.5,173.5C 87.5,170.833 87.5,168.167 87.5,165.5 Z"/></g>
<g><path style="opacity:1" fill="#6e98af" d="M 119.5,196.5 C 119.5,186.167 119.5,175.833 119.5,165.5C 116.833,165.5 114.167,165.5 111.5,165.5C 111.5,175.833 111.5,186.167 111.5,196.5C 111.5,196.833 111.5,197.167 111.5,197.5C 109.167,197.5 106.833,197.5 104.5,197.5C 106.265,196.539 108.265,196.205 110.5,196.5C 110.5,185.833 110.5,175.167 110.5,164.5C 113.833,164.5 117.167,164.5 120.5,164.5C 120.828,175.346 120.494,186.013 119.5,196.5 Z"/></g>
<g><path style="opacity:1" fill="#fdfefe" d="M 119.5,196.5 C 116.833,196.5 114.167,196.5 111.5,196.5C 111.5,186.167 111.5,175.833 111.5,165.5C 114.167,165.5 116.833,165.5 119.5,165.5C 119.5,175.833 119.5,186.167 119.5,196.5 Z"/></g>
<g><path style="opacity:1" fill="#fdfdfd" d="M 127.5,165.5 C 132.833,165.5 138.167,165.5 143.5,165.5C 143.5,168.167 143.5,170.833 143.5,173.5C 140.833,173.5 138.167,173.5 135.5,173.5C 135.5,181.167 135.5,188.833 135.5,196.5C 132.833,196.5 130.167,196.5 127.5,196.5C 127.5,186.167 127.5,175.833 127.5,165.5 Z"/></g>
<g><path style="opacity:1" fill="#f7f9fa" d="M 183.5,165.5 C 183.5,168.167 183.5,170.833 183.5,173.5C 175.5,173.5 167.5,173.5 159.5,173.5C 159.5,170.833 159.5,168.167 159.5,165.5C 167.5,165.5 175.5,165.5 183.5,165.5 Z"/></g>
<g><path style="opacity:1" fill="#fdfdfe" d="M 238.5,165.5 C 238.5,167.833 238.5,170.167 238.5,172.5C 230.648,172.175 222.982,172.508 215.5,173.5C 215.5,178.833 215.5,184.167 215.5,189.5C 223.167,189.5 230.833,189.5 238.5,189.5C 238.5,194.5 238.5,199.5 238.5,204.5C 236.167,204.5 233.833,204.5 231.5,204.5C 231.768,201.881 231.435,199.381 230.5,197C 225.511,196.501 220.511,196.334 215.5,196.5C 215.5,202.167 215.5,207.833 215.5,213.5C 212.833,213.5 210.167,213.5 207.5,213.5C 207.5,197.5 207.5,181.5 207.5,165.5C 217.833,165.5 228.167,165.5 238.5,165.5 Z"/></g>
<g><path style="opacity:1" fill="#fefefe" d="M 294.5,165.5 C 294.5,167.833 294.5,170.167 294.5,172.5C 286.648,172.175 278.982,172.508 271.5,173.5C 270.506,183.987 270.172,194.654 270.5,205.5C 278.5,205.5 286.5,205.5 294.5,205.5C 294.5,207.833 294.5,210.167 294.5,212.5C 284.167,212.5 273.833,212.5 263.5,212.5C 263.5,196.833 263.5,181.167 263.5,165.5C 273.833,165.5 284.167,165.5 294.5,165.5 Z"/></g>
<g><path style="opacity:1" fill="#fefefe" d="M 327.5,165.5 C 335.167,165.5 342.833,165.5 350.5,165.5C 350.5,167.833 350.5,170.167 350.5,172.5C 342.833,172.5 335.167,172.5 327.5,172.5C 327.5,170.167 327.5,167.833 327.5,165.5 Z"/></g>
<g><path style="opacity:1" fill="#cfdbe1" d="M 238.5,165.5 C 239.473,167.948 239.806,170.615 239.5,173.5C 231.5,173.5 223.5,173.5 215.5,173.5C 222.982,172.508 230.648,172.175 238.5,172.5C 238.5,170.167 238.5,167.833 238.5,165.5 Z"/></g>
<g><path style="opacity:1" fill="#cedce2" d="M 326.5,165.5 C 326.833,165.5 327.167,165.5 327.5,165.5C 327.5,167.833 327.5,170.167 327.5,172.5C 335.167,172.5 342.833,172.5 350.5,172.5C 350.5,172.833 350.5,173.167 350.5,173.5C 342.5,173.5 334.5,173.5 326.5,173.5C 326.5,173.167 326.5,172.833 326.5,172.5C 326.5,170.167 326.5,167.833 326.5,165.5 Z"/></g>
<g><path style="opacity:1" fill="#fefefe" d="M 40.5,173.5 C 42.8333,173.5 45.1667,173.5 47.5,173.5C 47.5,178.833 47.5,184.167 47.5,189.5C 55.5,189.5 63.5,189.5 71.5,189.5C 72.4881,184.36 72.8214,179.026 72.5,173.5C 74.8333,173.5 77.1667,173.5 79.5,173.5C 79.5,186.833 79.5,200.167 79.5,213.5C 76.8333,213.5 74.1667,213.5 71.5,213.5C 71.5,207.833 71.5,202.167 71.5,196.5C 63.5,196.5 55.5,196.5 47.5,196.5C 47.5,201.833 47.5,207.167 47.5,212.5C 45.1667,212.5 42.8333,212.5 40.5,212.5C 40.5,199.5 40.5,186.5 40.5,173.5 Z"/></g>
<g><path style="opacity:1" fill="#79acca" d="M 47.5,173.5 C 55.5,173.5 63.5,173.5 71.5,173.5C 71.5,178.833 71.5,184.167 71.5,189.5C 63.5,189.5 55.5,189.5 47.5,189.5C 47.5,184.167 47.5,178.833 47.5,173.5 Z"/></g>
<g><path style="opacity:1" fill="#e0e9ed" d="M 47.5,173.5 C 47.5,173.167 47.5,172.833 47.5,172.5C 55.5,172.5 63.5,172.5 71.5,172.5C 71.8333,172.5 72.1667,172.5 72.5,172.5C 72.5,172.833 72.5,173.167 72.5,173.5C 72.8214,179.026 72.4881,184.36 71.5,189.5C 71.5,184.167 71.5,178.833 71.5,173.5C 63.5,173.5 55.5,173.5 47.5,173.5 Z"/></g>
<g><path style="opacity:1" fill="#6c91a5" d="M 72.5,173.5 C 72.5,173.167 72.5,172.833 72.5,172.5C 75.1667,172.5 77.8333,172.5 80.5,172.5C 80.829,186.344 80.4957,200.01 79.5,213.5C 79.5,200.167 79.5,186.833 79.5,173.5C 77.1667,173.5 74.8333,173.5 72.5,173.5 Z"/></g>
<g><path style="opacity:1" fill="#79a0b4" d="M 183.5,165.5 C 175.5,165.5 167.5,165.5 159.5,165.5C 159.5,168.167 159.5,170.833 159.5,173.5C 156.833,173.5 154.167,173.5 151.5,173.5C 151.5,186.833 151.5,200.167 151.5,213.5C 150.504,200.01 150.171,186.344 150.5,172.5C 153.167,172.5 155.833,172.5 158.5,172.5C 158.5,169.833 158.5,167.167 158.5,164.5C 167.017,164.174 175.35,164.507 183.5,165.5 Z"/></g>
<g><path style="opacity:1" fill="#fcfdfd" d="M 159.5,173.5 C 159.5,178.833 159.5,184.167 159.5,189.5C 167.5,189.5 175.5,189.5 183.5,189.5C 183.5,184.167 183.5,178.833 183.5,173.5C 186.167,173.5 188.833,173.5 191.5,173.5C 191.5,186.833 191.5,200.167 191.5,213.5C 188.833,213.5 186.167,213.5 183.5,213.5C 183.5,207.833 183.5,202.167 183.5,196.5C 175.5,196.5 167.5,196.5 159.5,196.5C 159.5,202.167 159.5,207.833 159.5,213.5C 156.833,213.5 154.167,213.5 151.5,213.5C 151.5,200.167 151.5,186.833 151.5,173.5C 154.167,173.5 156.833,173.5 159.5,173.5 Z"/></g>
<g><path style="opacity:1" fill="#79adca" d="M 159.5,173.5 C 167.5,173.5 175.5,173.5 183.5,173.5C 183.5,178.833 183.5,184.167 183.5,189.5C 175.5,189.5 167.5,189.5 159.5,189.5C 159.5,184.167 159.5,178.833 159.5,173.5 Z"/></g>
<g><path style="opacity:1" fill="#79acca" d="M 215.5,173.5 C 223.5,173.5 231.5,173.5 239.5,173.5C 239.5,178.5 239.5,183.5 239.5,188.5C 238.833,188.5 238.5,188.833 238.5,189.5C 230.833,189.5 223.167,189.5 215.5,189.5C 215.5,184.167 215.5,178.833 215.5,173.5 Z"/></g>
<g><path style="opacity:1" fill="#fefefe" d="M 239.5,173.5 C 241.833,173.5 244.167,173.5 246.5,173.5C 246.5,178.5 246.5,183.5 246.5,188.5C 244.167,188.5 241.833,188.5 239.5,188.5C 239.5,183.5 239.5,178.5 239.5,173.5 Z"/></g>
<g><path style="opacity:1" fill="#79adcb" d="M 271.5,173.5 C 279.167,173.5 286.833,173.5 294.5,173.5C 294.5,184.167 294.5,194.833 294.5,205.5C 286.5,205.5 278.5,205.5 270.5,205.5C 270.172,194.654 270.506,183.987 271.5,173.5 Z"/></g>
<g><path style="opacity:1" fill="#cedee7" d="M 294.5,165.5 C 295.468,167.607 295.802,169.941 295.5,172.5C 295.5,172.833 295.5,173.167 295.5,173.5C 295.5,183.833 295.5,194.167 295.5,204.5C 297.833,204.5 300.167,204.5 302.5,204.5C 302.5,204.833 302.5,205.167 302.5,205.5C 300.167,205.5 297.833,205.5 295.5,205.5C 295.5,208.167 295.5,210.833 295.5,213.5C 284.654,213.828 273.987,213.494 263.5,212.5C 273.833,212.5 284.167,212.5 294.5,212.5C 294.5,210.167 294.5,207.833 294.5,205.5C 294.5,194.833 294.5,184.167 294.5,173.5C 286.833,173.5 279.167,173.5 271.5,173.5C 278.982,172.508 286.648,172.175 294.5,172.5C 294.5,170.167 294.5,167.833 294.5,165.5 Z"/></g>
<g><path style="opacity:1" fill="#fefefe" d="M 295.5,173.5 C 297.833,173.5 300.167,173.5 302.5,173.5C 302.5,183.833 302.5,194.167 302.5,204.5C 300.167,204.5 297.833,204.5 295.5,204.5C 295.5,194.167 295.5,183.833 295.5,173.5 Z"/></g>
<g><path style="opacity:1" fill="#899fac" d="M 295.5,173.5 C 295.5,173.167 295.5,172.833 295.5,172.5C 298.167,172.5 300.833,172.5 303.5,172.5C 303.828,183.679 303.495,194.679 302.5,205.5C 302.5,205.167 302.5,204.833 302.5,204.5C 302.5,194.167 302.5,183.833 302.5,173.5C 300.167,173.5 297.833,173.5 295.5,173.5 Z"/></g>
<g><path style="opacity:1" fill="#96aab4" d="M 326.5,172.5 C 326.5,172.833 326.5,173.167 326.5,173.5C 324.167,173.5 321.833,173.5 319.5,173.5C 319.5,176.167 319.5,178.833 319.5,181.5C 318.523,178.713 318.19,175.713 318.5,172.5C 321.167,172.5 323.833,172.5 326.5,172.5 Z"/></g>
<g><path style="opacity:1" fill="#fbfcfc" d="M 326.5,173.5 C 326.5,175.833 326.5,178.167 326.5,180.5C 326.5,180.833 326.5,181.167 326.5,181.5C 324.167,181.5 321.833,181.5 319.5,181.5C 319.5,178.833 319.5,176.167 319.5,173.5C 321.833,173.5 324.167,173.5 326.5,173.5 Z"/></g>
<g><path style="opacity:1" fill="#e0edf3" d="M 40.5,173.5 C 40.5,186.5 40.5,199.5 40.5,212.5C 42.8333,212.5 45.1667,212.5 47.5,212.5C 45.0521,213.473 42.3854,213.806 39.5,213.5C 39.1711,199.99 39.5044,186.656 40.5,173.5 Z"/></g>
<g><path style="opacity:1" fill="#7493a4" d="M 327.5,181.5 C 327.5,181.167 327.5,180.833 327.5,180.5C 332.833,180.5 338.167,180.5 343.5,180.5C 343.5,183.167 343.5,185.833 343.5,188.5C 343.167,188.5 342.833,188.5 342.5,188.5C 342.5,186.167 342.5,183.833 342.5,181.5C 337.5,181.5 332.5,181.5 327.5,181.5 Z"/></g>
<g><path style="opacity:1" fill="#fefefe" d="M 327.5,181.5 C 332.5,181.5 337.5,181.5 342.5,181.5C 342.5,183.833 342.5,186.167 342.5,188.5C 337.5,188.5 332.5,188.5 327.5,188.5C 327.5,186.167 327.5,183.833 327.5,181.5 Z"/></g>
<g><path style="opacity:1" fill="#d8e4ea" d="M 326.5,180.5 C 326.833,180.5 327.167,180.5 327.5,180.5C 327.5,180.833 327.5,181.167 327.5,181.5C 327.5,183.833 327.5,186.167 327.5,188.5C 332.5,188.5 337.5,188.5 342.5,188.5C 342.833,188.5 343.167,188.5 343.5,188.5C 343.5,188.833 343.5,189.167 343.5,189.5C 343.5,194.5 343.5,199.5 343.5,204.5C 345.833,204.5 348.167,204.5 350.5,204.5C 348.052,205.473 345.385,205.806 342.5,205.5C 342.5,205.167 342.5,204.833 342.5,204.5C 342.5,199.5 342.5,194.5 342.5,189.5C 337.167,189.5 331.833,189.5 326.5,189.5C 326.5,186.833 326.5,184.167 326.5,181.5C 326.5,181.167 326.5,180.833 326.5,180.5 Z"/></g>
<g><path style="opacity:1" fill="#fefefe" d="M 343.5,189.5 C 345.833,189.5 348.167,189.5 350.5,189.5C 350.5,194.5 350.5,199.5 350.5,204.5C 348.167,204.5 345.833,204.5 343.5,204.5C 343.5,199.5 343.5,194.5 343.5,189.5 Z"/></g>
<g><path style="opacity:1" fill="#d8e4ea" d="M 246.5,173.5 C 247.488,178.64 247.821,183.974 247.5,189.5C 244.833,189.5 242.167,189.5 239.5,189.5C 239.5,194.833 239.5,200.167 239.5,205.5C 236.615,205.806 233.948,205.473 231.5,204.5C 233.833,204.5 236.167,204.5 238.5,204.5C 238.5,199.5 238.5,194.5 238.5,189.5C 238.5,188.833 238.833,188.5 239.5,188.5C 241.833,188.5 244.167,188.5 246.5,188.5C 246.5,183.5 246.5,178.5 246.5,173.5 Z"/></g>
<g><path style="opacity:1" fill="#fcfdfd" d="M 104.5,197.5 C 106.833,197.5 109.167,197.5 111.5,197.5C 111.5,202.833 111.5,208.167 111.5,213.5C 108.833,213.5 106.167,213.5 103.5,213.5C 103.179,207.974 103.512,202.64 104.5,197.5 Z"/></g>
<g><path style="opacity:1" fill="#fcfdfe" d="M 119.5,197.5 C 122.167,197.5 124.833,197.5 127.5,197.5C 127.5,202.833 127.5,208.167 127.5,213.5C 124.833,213.5 122.167,213.5 119.5,213.5C 119.5,208.167 119.5,202.833 119.5,197.5 Z"/></g>
<g><path style="opacity:1" fill="#87a3b2" d="M 342.5,204.5 C 342.5,204.833 342.5,205.167 342.5,205.5C 334.833,205.5 327.167,205.5 319.5,205.5C 319.5,208.167 319.5,210.833 319.5,213.5C 318.523,210.713 318.19,207.713 318.5,204.5C 326.5,204.5 334.5,204.5 342.5,204.5 Z"/></g>
<g><path style="opacity:1" fill="#f7fafb" d="M 239.5,205.5 C 242.167,205.5 244.833,205.5 247.5,205.5C 247.5,208.167 247.5,210.833 247.5,213.5C 244.833,213.5 242.167,213.5 239.5,213.5C 239.5,210.833 239.5,208.167 239.5,205.5 Z"/></g>
<g><path style="opacity:1" fill="#fafcfd" d="M 342.5,205.5 C 342.5,208.167 342.5,210.833 342.5,213.5C 334.833,213.5 327.167,213.5 319.5,213.5C 319.5,210.833 319.5,208.167 319.5,205.5C 327.167,205.5 334.833,205.5 342.5,205.5 Z"/></g>
</svg>
